<?xml version="1.0" encoding="UTF-8" standalone="no"?>
<!-- Created with Inkscape (http://www.inkscape.org/) -->

<svg
   version="1.1"
   id="svg1"
   width="3349.4746"
   height="3288.6926"
   viewBox="0 0 3349.4746 3288.6926"
   xmlns="http://www.w3.org/2000/svg"
   xmlns:svg="http://www.w3.org/2000/svg">
  <defs
     id="defs1">
    <clipPath
       clipPathUnits="userSpaceOnUse"
       id="clipPath2">
      <path
         d="M 0,2834.646 H 2834.646 V 0 H 0 Z"
         transform="translate(-1068.4044,-372.69041)"
         id="path2" />
    </clipPath>
    <clipPath
       clipPathUnits="userSpaceOnUse"
       id="clipPath4">
      <path
         d="M 0,2834.646 H 2834.646 V 0 H 0 Z"
         transform="translate(0,-2.5e-5)"
         id="path4" />
    </clipPath>
    <clipPath
       clipPathUnits="userSpaceOnUse"
       id="clipPath6">
      <path
         d="M 0,2834.646 H 2834.646 V 0 H 0 Z"
         transform="translate(0,-2.5e-5)"
         id="path6" />
    </clipPath>
    <clipPath
       clipPathUnits="userSpaceOnUse"
       id="clipPath8">
      <path
         d="M 0,2834.646 H 2834.646 V 0 H 0 Z"
         transform="translate(0,-2.5e-5)"
         id="path8" />
    </clipPath>
    <clipPath
       clipPathUnits="userSpaceOnUse"
       id="clipPath10">
      <path
         d="M 0,2834.646 H 2834.646 V 0 H 0 Z"
         transform="translate(0,-2.5e-5)"
         id="path10" />
    </clipPath>
    <clipPath
       clipPathUnits="userSpaceOnUse"
       id="clipPath12">
      <path
         d="M 0,2834.646 H 2834.646 V 0 H 0 Z"
         transform="translate(0,-2.5e-5)"
         id="path12" />
    </clipPath>
    <clipPath
       clipPathUnits="userSpaceOnUse"
       id="clipPath14">
      <path
         d="M 0,2834.646 H 2834.646 V 0 H 0 Z"
         transform="translate(0,-2.5e-5)"
         id="path14" />
    </clipPath>
    <clipPath
       clipPathUnits="userSpaceOnUse"
       id="clipPath16">
      <path
         d="M 0,2834.646 H 2834.646 V 0 H 0 Z"
         transform="translate(0,-2.5e-5)"
         id="path16" />
    </clipPath>
    <clipPath
       clipPathUnits="userSpaceOnUse"
       id="clipPath18">
      <path
         d="M 0,2834.646 H 2834.646 V 0 H 0 Z"
         transform="translate(0,-2.5e-5)"
         id="path18" />
    </clipPath>
    <clipPath
       clipPathUnits="userSpaceOnUse"
       id="clipPath20">
      <path
         d="M 0,2834.646 H 2834.646 V 0 H 0 Z"
         transform="translate(0,-2.5e-5)"
         id="path20" />
    </clipPath>
    <clipPath
       clipPathUnits="userSpaceOnUse"
       id="clipPath22">
      <path
         d="M 0,2834.646 H 2834.646 V 0 H 0 Z"
         transform="translate(0,-2.5e-5)"
         id="path22" />
    </clipPath>
    <clipPath
       clipPathUnits="userSpaceOnUse"
       id="clipPath24">
      <path
         d="M 0,2834.646 H 2834.646 V 0 H 0 Z"
         transform="translate(0,-2.5e-5)"
         id="path24" />
    </clipPath>
    <clipPath
       clipPathUnits="userSpaceOnUse"
       id="clipPath26">
      <path
         d="M 0,2834.646 H 2834.646 V 0 H 0 Z"
         transform="translate(0,-2.5e-5)"
         id="path26" />
    </clipPath>
    <clipPath
       clipPathUnits="userSpaceOnUse"
       id="clipPath28">
      <path
         d="M 0,2834.646 H 2834.646 V 0 H 0 Z"
         transform="translate(0,-2.5e-5)"
         id="path28" />
    </clipPath>
    <clipPath
       clipPathUnits="userSpaceOnUse"
       id="clipPath30">
      <path
         d="M 0,2834.646 H 2834.646 V 0 H 0 Z"
         transform="translate(0,-2.5e-5)"
         id="path30" />
    </clipPath>
    <clipPath
       clipPathUnits="userSpaceOnUse"
       id="clipPath32">
      <path
         d="M 0,2834.646 H 2834.646 V 0 H 0 Z"
         transform="translate(0,-2.5e-5)"
         id="path32" />
    </clipPath>
    <clipPath
       clipPathUnits="userSpaceOnUse"
       id="clipPath34">
      <path
         d="M 0,2834.646 H 2834.646 V 0 H 0 Z"
         transform="translate(0,-2.5e-5)"
         id="path34" />
    </clipPath>
    <clipPath
       clipPathUnits="userSpaceOnUse"
       id="clipPath36">
      <path
         d="M 0,2834.646 H 2834.646 V 0 H 0 Z"
         transform="translate(0,-2.5e-5)"
         id="path36" />
    </clipPath>
    <clipPath
       clipPathUnits="userSpaceOnUse"
       id="clipPath38">
      <path
         d="M 0,2834.646 H 2834.646 V 0 H 0 Z"
         transform="translate(0,-2.5e-5)"
         id="path38" />
    </clipPath>
    <clipPath
       clipPathUnits="userSpaceOnUse"
       id="clipPath40">
      <path
         d="M 0,2834.646 H 2834.646 V 0 H 0 Z"
         transform="translate(0,-2.5e-5)"
         id="path40" />
    </clipPath>
    <clipPath
       clipPathUnits="userSpaceOnUse"
       id="clipPath42">
      <path
         d="M 0,2834.646 H 2834.646 V 0 H 0 Z"
         transform="translate(0,-2.5e-5)"
         id="path42" />
    </clipPath>
    <clipPath
       clipPathUnits="userSpaceOnUse"
       id="clipPath44">
      <path
         d="M 0,2834.646 H 2834.646 V 0 H 0 Z"
         transform="translate(0,-2.5e-5)"
         id="path44" />
    </clipPath>
    <clipPath
       clipPathUnits="userSpaceOnUse"
       id="clipPath46">
      <path
         d="M 0,2834.646 H 2834.646 V 0 H 0 Z"
         transform="translate(0,-2.5e-5)"
         id="path46" />
    </clipPath>
    <clipPath
       clipPathUnits="userSpaceOnUse"
       id="clipPath48">
      <path
         d="M 0,2834.646 H 2834.646 V 0 H 0 Z"
         transform="translate(0,-2.5e-5)"
         id="path48" />
    </clipPath>
    <clipPath
       clipPathUnits="userSpaceOnUse"
       id="clipPath50">
      <path
         d="M 0,2834.646 H 2834.646 V 0 H 0 Z"
         transform="translate(0,-2.5e-5)"
         id="path50" />
    </clipPath>
    <clipPath
       clipPathUnits="userSpaceOnUse"
       id="clipPath52">
      <path
         d="M 0,2834.646 H 2834.646 V 0 H 0 Z"
         transform="translate(0,-2.5e-5)"
         id="path52" />
    </clipPath>
    <clipPath
       clipPathUnits="userSpaceOnUse"
       id="clipPath54">
      <path
         d="M 0,2834.646 H 2834.646 V 0 H 0 Z"
         transform="translate(0,-2.5e-5)"
         id="path54" />
    </clipPath>
    <clipPath
       clipPathUnits="userSpaceOnUse"
       id="clipPath56">
      <path
         d="M 0,2834.646 H 2834.646 V 0 H 0 Z"
         transform="translate(0,-2.5e-5)"
         id="path56" />
    </clipPath>
    <clipPath
       clipPathUnits="userSpaceOnUse"
       id="clipPath58">
      <path
         d="M 0,2834.646 H 2834.646 V 0 H 0 Z"
         transform="translate(0,-2.5e-5)"
         id="path58" />
    </clipPath>
    <clipPath
       clipPathUnits="userSpaceOnUse"
       id="clipPath60">
      <path
         d="M 0,2834.646 H 2834.646 V 0 H 0 Z"
         transform="translate(0,-2.5e-5)"
         id="path60" />
    </clipPath>
    <clipPath
       clipPathUnits="userSpaceOnUse"
       id="clipPath62">
      <path
         d="M 0,2834.646 H 2834.646 V 0 H 0 Z"
         transform="translate(0,-2.5e-5)"
         id="path62" />
    </clipPath>
    <clipPath
       clipPathUnits="userSpaceOnUse"
       id="clipPath64">
      <path
         d="M 0,2834.646 H 2834.646 V 0 H 0 Z"
         transform="translate(0,-2.5e-5)"
         id="path64" />
    </clipPath>
    <clipPath
       clipPathUnits="userSpaceOnUse"
       id="clipPath66">
      <path
         d="M 0,2834.646 H 2834.646 V 0 H 0 Z"
         transform="translate(0,-2.5e-5)"
         id="path66" />
    </clipPath>
    <clipPath
       clipPathUnits="userSpaceOnUse"
       id="clipPath68">
      <path
         d="M 0,2834.646 H 2834.646 V 0 H 0 Z"
         transform="translate(0,-2.5e-5)"
         id="path68" />
    </clipPath>
    <clipPath
       clipPathUnits="userSpaceOnUse"
       id="clipPath70">
      <path
         d="M 0,2834.646 H 2834.646 V 0 H 0 Z"
         transform="translate(0,-2.5e-5)"
         id="path70" />
    </clipPath>
    <clipPath
       clipPathUnits="userSpaceOnUse"
       id="clipPath72">
      <path
         d="M 0,2834.646 H 2834.646 V 0 H 0 Z"
         transform="translate(0,-2.5e-5)"
         id="path72" />
    </clipPath>
    <clipPath
       clipPathUnits="userSpaceOnUse"
       id="clipPath74">
      <path
         d="M 0,2834.646 H 2834.646 V 0 H 0 Z"
         transform="translate(0,-2.5e-5)"
         id="path74" />
    </clipPath>
    <clipPath
       clipPathUnits="userSpaceOnUse"
       id="clipPath76">
      <path
         d="M 0,2834.646 H 2834.646 V 0 H 0 Z"
         transform="translate(0,-2.5e-5)"
         id="path76" />
    </clipPath>
    <clipPath
       clipPathUnits="userSpaceOnUse"
       id="clipPath78">
      <path
         d="M 0,2834.646 H 2834.646 V 0 H 0 Z"
         transform="translate(0,-2.5e-5)"
         id="path78" />
    </clipPath>
    <clipPath
       clipPathUnits="userSpaceOnUse"
       id="clipPath80">
      <path
         d="M 0,2834.646 H 2834.646 V 0 H 0 Z"
         transform="translate(0,-2.5e-5)"
         id="path80" />
    </clipPath>
    <clipPath
       clipPathUnits="userSpaceOnUse"
       id="clipPath82">
      <path
         d="M 0,2834.646 H 2834.646 V 0 H 0 Z"
         transform="translate(0,-2.5e-5)"
         id="path82" />
    </clipPath>
    <clipPath
       clipPathUnits="userSpaceOnUse"
       id="clipPath84">
      <path
         d="M 0,2834.646 H 2834.646 V 0 H 0 Z"
         transform="translate(0,-2.5e-5)"
         id="path84" />
    </clipPath>
    <clipPath
       clipPathUnits="userSpaceOnUse"
       id="clipPath86">
      <path
         d="M 0,2834.646 H 2834.646 V 0 H 0 Z"
         transform="translate(0,-2.5e-5)"
         id="path86" />
    </clipPath>
    <clipPath
       clipPathUnits="userSpaceOnUse"
       id="clipPath88">
      <path
         d="M 0,2834.646 H 2834.646 V 0 H 0 Z"
         transform="translate(0,-2.5e-5)"
         id="path88" />
    </clipPath>
    <clipPath
       clipPathUnits="userSpaceOnUse"
       id="clipPath90">
      <path
         d="M 0,2834.646 H 2834.646 V 0 H 0 Z"
         transform="translate(0,-2.5e-5)"
         id="path90" />
    </clipPath>
    <clipPath
       clipPathUnits="userSpaceOnUse"
       id="clipPath92">
      <path
         d="M 0,2834.646 H 2834.646 V 0 H 0 Z"
         transform="translate(0,-2.5e-5)"
         id="path92" />
    </clipPath>
    <clipPath
       clipPathUnits="userSpaceOnUse"
       id="clipPath94">
      <path
         d="M 0,2834.646 H 2834.646 V 0 H 0 Z"
         transform="translate(0,-2.5e-5)"
         id="path94" />
    </clipPath>
    <clipPath
       clipPathUnits="userSpaceOnUse"
       id="clipPath96">
      <path
         d="M 0,2834.646 H 2834.646 V 0 H 0 Z"
         transform="translate(0,-2.5e-5)"
         id="path96" />
    </clipPath>
    <clipPath
       clipPathUnits="userSpaceOnUse"
       id="clipPath98">
      <path
         d="M 0,2834.646 H 2834.646 V 0 H 0 Z"
         transform="translate(0,-2.5e-5)"
         id="path98" />
    </clipPath>
    <clipPath
       clipPathUnits="userSpaceOnUse"
       id="clipPath100">
      <path
         d="M 0,2834.646 H 2834.646 V 0 H 0 Z"
         transform="translate(0,-2.5e-5)"
         id="path100" />
    </clipPath>
    <clipPath
       clipPathUnits="userSpaceOnUse"
       id="clipPath102">
      <path
         d="M 0,2834.646 H 2834.646 V 0 H 0 Z"
         transform="translate(0,-2.5e-5)"
         id="path102" />
    </clipPath>
    <clipPath
       clipPathUnits="userSpaceOnUse"
       id="clipPath104">
      <path
         d="M 0,2834.646 H 2834.646 V 0 H 0 Z"
         transform="translate(0,-2.5e-5)"
         id="path104" />
    </clipPath>
    <clipPath
       clipPathUnits="userSpaceOnUse"
       id="clipPath106">
      <path
         d="M 0,2834.646 H 2834.646 V 0 H 0 Z"
         transform="translate(0,-2.5e-5)"
         id="path106" />
    </clipPath>
    <clipPath
       clipPathUnits="userSpaceOnUse"
       id="clipPath108">
      <path
         d="M 0,2834.646 H 2834.646 V 0 H 0 Z"
         transform="translate(0,-2.5e-5)"
         id="path108" />
    </clipPath>
    <clipPath
       clipPathUnits="userSpaceOnUse"
       id="clipPath110">
      <path
         d="M 0,2834.646 H 2834.646 V 0 H 0 Z"
         transform="translate(-1073.8605,-1298.5909)"
         id="path110" />
    </clipPath>
    <clipPath
       clipPathUnits="userSpaceOnUse"
       id="clipPath112">
      <path
         d="M 0,2834.646 H 2834.646 V 0 H 0 Z"
         transform="translate(-1672.5489,-1620.9365)"
         id="path112" />
    </clipPath>
    <clipPath
       clipPathUnits="userSpaceOnUse"
       id="clipPath114">
      <path
         d="M 0,2834.646 H 2834.646 V 0 H 0 Z"
         transform="translate(-465.94971,-631.89454)"
         id="path114" />
    </clipPath>
    <clipPath
       clipPathUnits="userSpaceOnUse"
       id="clipPath116">
      <path
         d="M 0,2834.646 H 2834.646 V 0 H 0 Z"
         transform="translate(-1171.7589,-1119.5596)"
         id="path116" />
    </clipPath>
    <clipPath
       clipPathUnits="userSpaceOnUse"
       id="clipPath118">
      <path
         d="M 0,2834.646 H 2834.646 V 0 H 0 Z"
         transform="translate(-336.58541,-2650.5831)"
         id="path118" />
    </clipPath>
    <clipPath
       clipPathUnits="userSpaceOnUse"
       id="clipPath120">
      <path
         d="M 0,2834.646 H 2834.646 V 0 H 0 Z"
         transform="translate(-2641.5742,-2214.1354)"
         id="path120" />
    </clipPath>
    <clipPath
       clipPathUnits="userSpaceOnUse"
       id="clipPath122">
      <path
         d="M 0,2834.646 H 2834.646 V 0 H 0 Z"
         transform="translate(-2487.4591,-2585.024)"
         id="path122" />
    </clipPath>
    <clipPath
       clipPathUnits="userSpaceOnUse"
       id="clipPath124">
      <path
         d="M 0,2834.646 H 2834.646 V 0 H 0 Z"
         transform="translate(-2595.0898,-1851.019)"
         id="path124" />
    </clipPath>
    <clipPath
       clipPathUnits="userSpaceOnUse"
       id="clipPath126">
      <path
         d="M 0,2834.646 H 2834.646 V 0 H 0 Z"
         transform="translate(-2594.332,-1846.0601)"
         id="path126" />
    </clipPath>
    <clipPath
       clipPathUnits="userSpaceOnUse"
       id="clipPath128">
      <path
         d="M 0,2834.646 H 2834.646 V 0 H 0 Z"
         transform="translate(-2368.5157,-1330.7257)"
         id="path128" />
    </clipPath>
    <clipPath
       clipPathUnits="userSpaceOnUse"
       id="clipPath130">
      <path
         d="M 0,2834.646 H 2834.646 V 0 H 0 Z"
         transform="translate(-2446.8204,-885.54395)"
         id="path130" />
    </clipPath>
    <clipPath
       clipPathUnits="userSpaceOnUse"
       id="clipPath132">
      <path
         d="M 0,2834.646 H 2834.646 V 0 H 0 Z"
         transform="translate(-2404.5958,-874.25105)"
         id="path132" />
    </clipPath>
    <clipPath
       clipPathUnits="userSpaceOnUse"
       id="clipPath134">
      <path
         d="M 0,2834.646 H 2834.646 V 0 H 0 Z"
         transform="translate(-2501.5645,-751.35252)"
         id="path134" />
    </clipPath>
  </defs>
  <g
     id="layer-MC0"
     transform="translate(-215.27466,-245.42267)">
    <path
       id="path1"
       d="m 0,0 c -117.526,117.482 -176.267,259.233 -176.267,425.213 0,164.984 58.741,306.474 176.267,424.482 117.481,116.996 259.232,175.517 425.211,175.517 164.988,0 306.475,-58.521 424.484,-175.517 116.998,-118.008 175.52,-259.498 175.52,-424.482 C 1025.215,259.233 966.693,117.482 849.695,0 731.686,-117.524 590.199,-176.265 425.211,-176.265 259.232,-176.265 117.481,-117.524 0,0"
       style="fill:#231f20;fill-opacity:1;fill-rule:nonzero;stroke:none"
       transform="matrix(1.3333333,0,0,-1.3333333,1424.5391,3282.6128)"
       clip-path="url(#clipPath2)" />
    <path
       id="path3"
       d="m 1201.264,672.315 h -113.139 v 113.141 h 113.139 z"
       style="fill:#f68712;fill-opacity:1;fill-rule:nonzero;stroke:none"
       transform="matrix(1.3333333,0,0,-1.3333333,0,3779.5333)"
       clip-path="url(#clipPath4)" />
    <path
       id="path5"
       d="m 1341.146,672.315 h -113.14 v 113.141 h 113.14 z"
       style="fill:#40c1f3;fill-opacity:1;fill-rule:nonzero;stroke:none"
       transform="matrix(1.3333333,0,0,-1.3333333,0,3779.5333)"
       clip-path="url(#clipPath6)" />
    <path
       id="path7"
       d="M 1061.382,672.315 H 948.24 v 113.141 h 113.142 z"
       style="fill:#5e2590;fill-opacity:1;fill-rule:nonzero;stroke:none"
       transform="matrix(1.3333333,0,0,-1.3333333,0,3779.5333)"
       clip-path="url(#clipPath8)" />
    <path
       id="path9"
       d="M 1481.031,672.315 H 1367.89 v 113.141 h 113.141 z"
       style="fill:#fff200;fill-opacity:1;fill-rule:nonzero;stroke:none"
       transform="matrix(1.3333333,0,0,-1.3333333,0,3779.5333)"
       clip-path="url(#clipPath10)" />
    <path
       id="path11"
       d="m 1620.916,672.315 h -113.143 v 113.141 h 113.143 z"
       style="fill:#80cc28;fill-opacity:1;fill-rule:nonzero;stroke:none"
       transform="matrix(1.3333333,0,0,-1.3333333,0,3779.5333)"
       clip-path="url(#clipPath12)" />
    <path
       id="path13"
       d="m 1760.799,672.315 h -113.141 v 113.141 h 113.141 z"
       style="fill:#fff200;fill-opacity:1;fill-rule:nonzero;stroke:none"
       transform="matrix(1.3333333,0,0,-1.3333333,0,3779.5333)"
       clip-path="url(#clipPath14)" />
    <path
       id="path15"
       d="m 1900.682,672.315 h -113.139 v 113.141 h 113.139 z"
       style="fill:#80cc28;fill-opacity:1;fill-rule:nonzero;stroke:none"
       transform="matrix(1.3333333,0,0,-1.3333333,0,3779.5333)"
       clip-path="url(#clipPath16)" />
    <path
       id="path17"
       d="m 2040.566,672.315 h -113.141 v 113.141 h 113.141 z"
       style="fill:#f68712;fill-opacity:1;fill-rule:nonzero;stroke:none"
       transform="matrix(1.3333333,0,0,-1.3333333,0,3779.5333)"
       clip-path="url(#clipPath18)" />
    <path
       id="path19"
       d="m 1787.541,645.532 h 113.141 V 532.391 h -113.141 z"
       style="fill:#3871c1;fill-opacity:1;fill-rule:nonzero;stroke:none"
       transform="matrix(1.3333333,0,0,-1.3333333,0,3779.5333)"
       clip-path="url(#clipPath20)" />
    <path
       id="path21"
       d="m 1647.658,645.532 h 113.141 V 532.391 h -113.141 z"
       style="fill:#f68712;fill-opacity:1;fill-rule:nonzero;stroke:none"
       transform="matrix(1.3333333,0,0,-1.3333333,0,3779.5333)"
       clip-path="url(#clipPath22)" />
    <path
       id="path23"
       d="m 1927.424,645.532 h 113.143 V 532.391 h -113.143 z"
       style="fill:#80cc28;fill-opacity:1;fill-rule:nonzero;stroke:none"
       transform="matrix(1.3333333,0,0,-1.3333333,0,3779.5333)"
       clip-path="url(#clipPath24)" />
    <path
       id="path25"
       d="m 1507.773,645.532 h 113.141 V 532.391 h -113.141 z"
       style="fill:#40c1f3;fill-opacity:1;fill-rule:nonzero;stroke:none"
       transform="matrix(1.3333333,0,0,-1.3333333,0,3779.5333)"
       clip-path="url(#clipPath26)" />
    <path
       id="path27"
       d="m 1367.889,645.532 h 113.143 V 532.391 h -113.143 z"
       style="fill:#5e2590;fill-opacity:1;fill-rule:nonzero;stroke:none"
       transform="matrix(1.3333333,0,0,-1.3333333,0,3779.5333)"
       clip-path="url(#clipPath28)" />
    <path
       id="path29"
       d="m 1228.006,645.532 h 113.141 V 532.391 h -113.141 z"
       style="fill:#ec008c;fill-opacity:1;fill-rule:nonzero;stroke:none"
       transform="matrix(1.3333333,0,0,-1.3333333,0,3779.5333)"
       clip-path="url(#clipPath30)" />
    <path
       id="path31"
       d="m 1088.125,645.532 h 113.137 V 532.391 h -113.137 z"
       style="fill:#3871c1;fill-opacity:1;fill-rule:nonzero;stroke:none"
       transform="matrix(1.3333333,0,0,-1.3333333,0,3779.5333)"
       clip-path="url(#clipPath32)" />
    <path
       id="path33"
       d="m 948.241,645.532 h 113.141 V 532.391 H 948.241 Z"
       style="fill:#ec008c;fill-opacity:1;fill-rule:nonzero;stroke:none"
       transform="matrix(1.3333333,0,0,-1.3333333,0,3779.5333)"
       clip-path="url(#clipPath34)" />
    <path
       id="path35"
       d="m 1201.264,392.467 h -113.139 v 113.141 h 113.139 z"
       style="fill:#fff200;fill-opacity:1;fill-rule:nonzero;stroke:none"
       transform="matrix(1.3333333,0,0,-1.3333333,0,3779.5333)"
       clip-path="url(#clipPath36)" />
    <path
       id="path37"
       d="m 1341.146,392.467 h -113.14 v 113.141 h 113.14 z"
       style="fill:#80cc28;fill-opacity:1;fill-rule:nonzero;stroke:none"
       transform="matrix(1.3333333,0,0,-1.3333333,0,3779.5333)"
       clip-path="url(#clipPath38)" />
    <path
       id="path39"
       d="M 1481.031,392.467 H 1367.89 v 113.141 h 113.141 z"
       style="fill:#fff200;fill-opacity:1;fill-rule:nonzero;stroke:none"
       transform="matrix(1.3333333,0,0,-1.3333333,0,3779.5333)"
       clip-path="url(#clipPath40)" />
    <path
       id="path41"
       d="m 1620.916,392.467 h -113.143 v 113.141 h 113.143 z"
       style="fill:#3871c1;fill-opacity:1;fill-rule:nonzero;stroke:none"
       transform="matrix(1.3333333,0,0,-1.3333333,0,3779.5333)"
       clip-path="url(#clipPath42)" />
    <path
       id="path43"
       d="m 1760.799,392.467 h -113.141 v 113.141 h 113.141 z"
       style="fill:#fff200;fill-opacity:1;fill-rule:nonzero;stroke:none"
       transform="matrix(1.3333333,0,0,-1.3333333,0,3779.5333)"
       clip-path="url(#clipPath44)" />
    <path
       id="path45"
       d="m 1900.682,392.467 h -113.139 v 113.141 h 113.139 z"
       style="fill:#5e2590;fill-opacity:1;fill-rule:nonzero;stroke:none"
       transform="matrix(1.3333333,0,0,-1.3333333,0,3779.5333)"
       clip-path="url(#clipPath46)" />
    <path
       id="path47"
       d="m 1647.658,365.685 h 113.141 V 252.544 h -113.141 z"
       style="fill:#f68712;fill-opacity:1;fill-rule:nonzero;stroke:none"
       transform="matrix(1.3333333,0,0,-1.3333333,0,3779.5333)"
       clip-path="url(#clipPath48)" />
    <path
       id="path49"
       d="m 1507.773,365.685 h 113.141 V 252.544 h -113.141 z"
       style="fill:#ec008c;fill-opacity:1;fill-rule:nonzero;stroke:none"
       transform="matrix(1.3333333,0,0,-1.3333333,0,3779.5333)"
       clip-path="url(#clipPath50)" />
    <path
       id="path51"
       d="m 1367.889,365.685 h 113.143 V 252.544 h -113.143 z"
       style="fill:#40c1f3;fill-opacity:1;fill-rule:nonzero;stroke:none"
       transform="matrix(1.3333333,0,0,-1.3333333,0,3779.5333)"
       clip-path="url(#clipPath52)" />
    <path
       id="path53"
       d="m 1228.006,365.685 h 113.141 V 252.544 h -113.141 z"
       style="fill:#fff200;fill-opacity:1;fill-rule:nonzero;stroke:none"
       transform="matrix(1.3333333,0,0,-1.3333333,0,3779.5333)"
       clip-path="url(#clipPath54)" />
    <path
       id="path55"
       d="m 1341.146,1232.012 h -113.14 v 113.14 h 113.14 z"
       style="fill:#40c1f3;fill-opacity:1;fill-rule:nonzero;stroke:none"
       transform="matrix(1.3333333,0,0,-1.3333333,0,3779.5333)"
       clip-path="url(#clipPath56)" />
    <path
       id="path57"
       d="M 1481.031,1232.012 H 1367.89 v 113.14 h 113.141 z"
       style="fill:#fff200;fill-opacity:1;fill-rule:nonzero;stroke:none"
       transform="matrix(1.3333333,0,0,-1.3333333,0,3779.5333)"
       clip-path="url(#clipPath58)" />
    <path
       id="path59"
       d="m 1620.916,1232.012 h -113.143 v 113.14 h 113.143 z"
       style="fill:#ec008c;fill-opacity:1;fill-rule:nonzero;stroke:none"
       transform="matrix(1.3333333,0,0,-1.3333333,0,3779.5333)"
       clip-path="url(#clipPath60)" />
    <path
       id="path61"
       d="m 1760.799,1232.012 h -113.141 v 113.14 h 113.141 z"
       style="fill:#fff200;fill-opacity:1;fill-rule:nonzero;stroke:none"
       transform="matrix(1.3333333,0,0,-1.3333333,0,3779.5333)"
       clip-path="url(#clipPath62)" />
    <path
       id="path63"
       d="m 1787.541,1205.229 h 113.141 v -113.141 h -113.141 z"
       style="fill:#3871c1;fill-opacity:1;fill-rule:nonzero;stroke:none"
       transform="matrix(1.3333333,0,0,-1.3333333,0,3779.5333)"
       clip-path="url(#clipPath64)" />
    <path
       id="path65"
       d="m 1647.658,1205.229 h 113.141 v -113.141 h -113.141 z"
       style="fill:#f68712;fill-opacity:1;fill-rule:nonzero;stroke:none"
       transform="matrix(1.3333333,0,0,-1.3333333,0,3779.5333)"
       clip-path="url(#clipPath66)" />
    <path
       id="path67"
       d="m 1507.773,1205.229 h 113.141 v -113.141 h -113.141 z"
       style="fill:#40c1f3;fill-opacity:1;fill-rule:nonzero;stroke:none"
       transform="matrix(1.3333333,0,0,-1.3333333,0,3779.5333)"
       clip-path="url(#clipPath68)" />
    <path
       id="path69"
       d="m 1367.889,1205.229 h 113.143 v -113.141 h -113.143 z"
       style="fill:#5e2590;fill-opacity:1;fill-rule:nonzero;stroke:none"
       transform="matrix(1.3333333,0,0,-1.3333333,0,3779.5333)"
       clip-path="url(#clipPath70)" />
    <path
       id="path71"
       d="m 1228.006,1205.229 h 113.141 v -113.141 h -113.141 z"
       style="fill:#ec008c;fill-opacity:1;fill-rule:nonzero;stroke:none"
       transform="matrix(1.3333333,0,0,-1.3333333,0,3779.5333)"
       clip-path="url(#clipPath72)" />
    <path
       id="path73"
       d="m 1088.125,1205.229 h 113.137 v -113.141 h -113.137 z"
       style="fill:#3871c1;fill-opacity:1;fill-rule:nonzero;stroke:none"
       transform="matrix(1.3333333,0,0,-1.3333333,0,3779.5333)"
       clip-path="url(#clipPath74)" />
    <path
       id="path75"
       d="m 1201.264,952.164 h -113.139 v 113.141 h 113.139 z"
       style="fill:#fff200;fill-opacity:1;fill-rule:nonzero;stroke:none"
       transform="matrix(1.3333333,0,0,-1.3333333,0,3779.5333)"
       clip-path="url(#clipPath76)" />
    <path
       id="path77"
       d="m 1341.146,952.164 h -113.14 v 113.141 h 113.14 z"
       style="fill:#80cc28;fill-opacity:1;fill-rule:nonzero;stroke:none"
       transform="matrix(1.3333333,0,0,-1.3333333,0,3779.5333)"
       clip-path="url(#clipPath78)" />
    <path
       id="path79"
       d="M 1061.382,952.164 H 948.24 v 113.141 h 113.142 z"
       style="fill:#5e2590;fill-opacity:1;fill-rule:nonzero;stroke:none"
       transform="matrix(1.3333333,0,0,-1.3333333,0,3779.5333)"
       clip-path="url(#clipPath80)" />
    <path
       id="path81"
       d="M 1481.031,952.164 H 1367.89 v 113.141 h 113.141 z"
       style="fill:#fff200;fill-opacity:1;fill-rule:nonzero;stroke:none"
       transform="matrix(1.3333333,0,0,-1.3333333,0,3779.5333)"
       clip-path="url(#clipPath82)" />
    <path
       id="path83"
       d="m 1620.916,952.164 h -113.143 v 113.141 h 113.143 z"
       style="fill:#3871c1;fill-opacity:1;fill-rule:nonzero;stroke:none"
       transform="matrix(1.3333333,0,0,-1.3333333,0,3779.5333)"
       clip-path="url(#clipPath84)" />
    <path
       id="path85"
       d="m 1760.799,952.164 h -113.141 v 113.141 h 113.141 z"
       style="fill:#fff200;fill-opacity:1;fill-rule:nonzero;stroke:none"
       transform="matrix(1.3333333,0,0,-1.3333333,0,3779.5333)"
       clip-path="url(#clipPath86)" />
    <path
       id="path87"
       d="m 1900.682,952.164 h -113.139 v 113.141 h 113.139 z"
       style="fill:#5e2590;fill-opacity:1;fill-rule:nonzero;stroke:none"
       transform="matrix(1.3333333,0,0,-1.3333333,0,3779.5333)"
       clip-path="url(#clipPath88)" />
    <path
       id="path89"
       d="m 2040.566,952.164 h -113.141 v 113.141 h 113.141 z"
       style="fill:#ec008c;fill-opacity:1;fill-rule:nonzero;stroke:none"
       transform="matrix(1.3333333,0,0,-1.3333333,0,3779.5333)"
       clip-path="url(#clipPath90)" />
    <path
       id="path91"
       d="m 1787.541,925.382 h 113.141 V 812.239 h -113.141 z"
       style="fill:#3871c1;fill-opacity:1;fill-rule:nonzero;stroke:none"
       transform="matrix(1.3333333,0,0,-1.3333333,0,3779.5333)"
       clip-path="url(#clipPath92)" />
    <path
       id="path93"
       d="m 1647.658,925.382 h 113.141 V 812.239 h -113.141 z"
       style="fill:#f68712;fill-opacity:1;fill-rule:nonzero;stroke:none"
       transform="matrix(1.3333333,0,0,-1.3333333,0,3779.5333)"
       clip-path="url(#clipPath94)" />
    <path
       id="path95"
       d="m 1927.424,925.382 h 113.143 V 812.239 h -113.143 z"
       style="fill:#80cc28;fill-opacity:1;fill-rule:nonzero;stroke:none"
       transform="matrix(1.3333333,0,0,-1.3333333,0,3779.5333)"
       clip-path="url(#clipPath96)" />
    <path
       id="path97"
       d="m 1507.773,925.382 h 113.141 V 812.239 h -113.141 z"
       style="fill:#ec008c;fill-opacity:1;fill-rule:nonzero;stroke:none"
       transform="matrix(1.3333333,0,0,-1.3333333,0,3779.5333)"
       clip-path="url(#clipPath98)" />
    <path
       id="path99"
       d="m 1367.889,925.382 h 113.143 V 812.239 h -113.143 z"
       style="fill:#40c1f3;fill-opacity:1;fill-rule:nonzero;stroke:none"
       transform="matrix(1.3333333,0,0,-1.3333333,0,3779.5333)"
       clip-path="url(#clipPath100)" />
    <path
       id="path101"
       d="m 1228.006,925.382 h 113.141 V 812.239 h -113.141 z"
       style="fill:#fff200;fill-opacity:1;fill-rule:nonzero;stroke:none"
       transform="matrix(1.3333333,0,0,-1.3333333,0,3779.5333)"
       clip-path="url(#clipPath102)" />
    <path
       id="path103"
       d="m 1088.125,925.382 h 113.137 V 812.239 h -113.137 z"
       style="fill:#5e2590;fill-opacity:1;fill-rule:nonzero;stroke:none"
       transform="matrix(1.3333333,0,0,-1.3333333,0,3779.5333)"
       clip-path="url(#clipPath104)" />
    <path
       id="path105"
       d="m 948.241,925.382 h 113.141 V 812.239 H 948.241 Z"
       style="fill:#f68712;fill-opacity:1;fill-rule:nonzero;stroke:none"
       transform="matrix(1.3333333,0,0,-1.3333333,0,3779.5333)"
       clip-path="url(#clipPath106)" />
    <path
       id="path107"
       d="M 329.027,1298.591 H 161.456 v 1229.292 h 167.571 z"
       style="fill:#231f20;fill-opacity:1;fill-rule:nonzero;stroke:none"
       transform="matrix(1.3333333,0,0,-1.3333333,0,3779.5333)"
       clip-path="url(#clipPath108)" />
    <path
       id="path109"
       d="m 0,0 h -804.767 l 531.255,1063.234 h -535.012 v 166.058 H -4.521 L -535.754,166.066 H 0 Z"
       style="fill:#231f20;fill-opacity:1;fill-rule:nonzero;stroke:none"
       transform="matrix(1.3333333,0,0,-1.3333333,1431.8139,2048.0789)"
       clip-path="url(#clipPath110)" />
    <path
       id="path111"
       d="M 0,0 -181.088,451.587 -360.671,0 Z m 68.379,-169.819 h -497.428 l -60.865,-152.527 H -673.253 L -181.088,909.196 311.84,-322.346 H 129.244 Z"
       style="fill:#231f20;fill-opacity:1;fill-rule:nonzero;stroke:none"
       transform="matrix(1.3333333,0,0,-1.3333333,2230.0651,1618.2847)"
       clip-path="url(#clipPath112)" />
    <path
       id="path113"
       d="m 0,0 c 83.65,0 155.29,29.802 214.918,89.408 59.605,59.111 89.409,130.75 89.409,214.918 0,84.146 -29.804,155.784 -89.409,214.896 C 155.29,578.827 83.65,608.631 0,608.631 H -130.728 V 0 Z M 269.013,-447.831 51.104,-173.577 H -130.728 V -447.831 H -304.304 V 781.463 H 0 c 131.74,0 244.204,-46.606 337.391,-139.769 93.165,-93.164 139.748,-205.628 139.748,-337.368 0,-132.257 -46.583,-244.968 -139.748,-338.134 -32.569,-32.074 -68.647,-59.358 -108.212,-81.895 l 260.735,-332.128 z"
       style="fill:#231f20;fill-opacity:1;fill-rule:nonzero;stroke:none"
       transform="matrix(1.3333333,0,0,-1.3333333,621.26627,2937.0073)"
       clip-path="url(#clipPath114)" />
    <path
       id="path115"
       d="m 0,0 c -88.171,-88.667 -132.257,-195.372 -132.257,-320.094 0,-125.24 44.086,-232.193 132.257,-320.86 88.667,-88.172 195.598,-132.234 320.837,-132.234 124.723,0 231.428,44.062 320.096,132.234 88.664,88.667 132.998,195.62 132.998,320.86 C 773.931,-195.372 729.597,-88.667 640.933,0 552.265,88.665 445.56,132.999 320.837,132.999 195.598,132.999 88.667,88.665 0,0 m -114.217,-755.149 c -120.247,120.201 -180.347,265.234 -180.347,435.055 0,168.807 60.1,313.571 180.347,434.311 120.2,119.704 265.235,179.581 435.054,179.581 168.809,0 313.572,-59.877 434.312,-179.581 119.705,-120.74 179.582,-265.504 179.582,-434.311 0,-169.821 -59.877,-314.854 -179.582,-435.055 -120.74,-120.247 -265.503,-180.347 -434.312,-180.347 -169.819,0 -314.854,60.1 -435.054,180.347"
       style="fill:#231f20;fill-opacity:1;fill-rule:nonzero;stroke:none"
       transform="matrix(1.3333333,0,0,-1.3333333,1562.3451,2286.7872)"
       clip-path="url(#clipPath116)" />
    <path
       id="path117"
       d="m 0,0 c 1.772,0 2.836,-1.863 1.772,-4.966 l -38.308,-100.546 c -0.709,-3.103 -2.483,-5.586 -6.385,-5.586 h -121.313 c -3.901,0 -3.901,4.035 -2.838,5.275 l 94,102.719 C -71.653,-1.552 -69.525,0 -67.397,0 Z"
       style="fill:#231f20;fill-opacity:1;fill-rule:nonzero;stroke:none"
       transform="matrix(1.3333333,0,0,-1.3333333,448.78053,245.42267)"
       clip-path="url(#clipPath118)" />
    <path
       id="path119"
       d="m 0,0 c -9.873,-20.04 -22.799,-37.035 -38.76,-50.977 -15.97,-13.941 -34.551,-24.69 -55.742,-32.237 -21.203,-7.546 -44.572,-11.33 -70.119,-11.33 -31.941,0 -60.256,5.961 -84.936,17.862 -24.681,11.902 -45.439,28.02 -62.275,48.356 -16.848,20.336 -29.617,44.012 -38.326,71.026 -8.709,27.016 -13.065,55.912 -13.065,86.701 0,32.534 4.207,63.46 12.631,92.801 8.424,29.341 21.203,55.194 38.336,77.56 17.133,22.365 38.916,40.227 65.352,53.587 26.424,13.36 57.361,20.04 92.789,20.04 20.906,0 40.947,-3.202 60.119,-9.586 19.162,-6.385 36.295,-15.686 51.4,-27.883 15.104,-12.197 27.735,-27.449 37.903,-45.745 10.168,-18.307 16.699,-39.361 19.605,-63.174 H -2.674 c -3.488,22.069 -9.873,41.095 -19.154,57.075 -9.289,15.982 -20.61,29.341 -33.949,40.09 -13.35,10.739 -28.432,18.73 -45.258,23.961 -16.826,5.222 -34.531,7.844 -53.1,7.844 -35.408,0 -65.437,-6.828 -90.095,-20.485 -24.67,-13.656 -44.393,-31.37 -59.19,-53.154 -14.797,-21.783 -25.535,-46.178 -32.205,-73.193 -6.68,-27.017 -10.01,-53.599 -10.01,-79.738 0,-27.31 3.91,-53.449 11.742,-78.425 7.832,-24.986 19.291,-47.055 34.373,-66.228 15.083,-19.173 33.94,-34.414 56.569,-45.745 22.617,-11.33 48.724,-16.995 78.32,-16.995 22.047,0 42.637,3.34 61.777,10.019 19.143,6.68 36.106,16.415 50.905,29.194 14.797,12.778 26.834,28.03 36.115,45.745 9.279,17.713 14.797,37.912 16.541,60.573 H 18.295 C 15.971,42.552 9.871,20.039 0,0"
       style="fill:#a7a5a6;fill-opacity:1;fill-rule:nonzero;stroke:none"
       transform="matrix(1.3333333,0,0,-1.3333333,3522.0989,827.35293)"
       clip-path="url(#clipPath120)" />
    <path
       id="path121"
       d="m 0,0 c -34.875,0 -65.713,-6.651 -91.66,-19.771 -25.973,-13.126 -47.672,-30.917 -64.496,-52.876 -16.862,-22.012 -29.619,-47.828 -37.916,-76.729 -8.319,-28.969 -12.535,-59.959 -12.535,-92.111 0,-30.381 4.355,-59.294 12.945,-85.934 8.572,-26.597 21.314,-50.215 37.871,-70.199 16.525,-19.961 37.195,-36.009 61.436,-47.698 24.236,-11.688 52.449,-17.615 83.849,-17.615 25.119,0 48.428,3.764 69.281,11.186 20.788,7.403 39.272,18.091 54.938,31.766 15.642,13.665 28.482,30.554 38.16,50.198 9.33,18.939 15.307,40.435 17.777,63.933 h -12.527 c -1.955,-21.981 -7.545,-41.897 -16.627,-59.233 -9.389,-17.92 -21.734,-33.558 -36.697,-46.477 -14.979,-12.935 -32.377,-22.915 -51.713,-29.662 -19.315,-6.741 -40.377,-10.159 -62.602,-10.159 -29.851,0 -56.578,5.808 -79.439,17.26 -22.865,11.449 -42.182,27.072 -57.414,46.434 -15.205,19.33 -26.91,41.88 -34.793,67.027 -7.867,25.089 -11.858,51.726 -11.858,79.173 0,26.248 3.393,53.277 10.084,80.337 6.706,27.164 17.663,52.061 32.563,73.999 14.951,22.008 35.154,40.156 60.047,53.936 24.918,13.8 55.638,20.797 91.306,20.797 18.715,0 36.831,-2.677 53.842,-7.956 17.035,-5.297 32.541,-13.506 46.084,-24.4 13.53,-10.903 25.151,-24.622 34.543,-40.782 9.096,-15.664 15.524,-34.436 19.117,-55.832 h 12.62 c -3.02,22.258 -9.389,42.249 -18.95,59.46 -9.968,17.94 -22.513,33.084 -37.287,45.015 C 95.133,-24.95 78.102,-15.712 59.33,-9.458 40.48,-3.182 20.52,0 0,0 m -10.506,-467.933 c -32.16,0 -61.101,6.094 -86.021,18.111 -24.893,12.004 -46.129,28.494 -63.116,49.012 -16.962,20.476 -30.009,44.651 -38.779,71.855 -8.748,27.137 -13.185,56.564 -13.185,87.468 0,32.619 4.283,64.073 12.728,93.491 8.471,29.504 21.51,55.879 38.754,78.39 17.283,22.561 39.561,40.83 66.209,54.297 C -67.264,-1.833 -35.666,5 0,5 21.059,5 41.551,1.731 60.91,-4.714 c 19.34,-6.444 36.897,-15.969 52.18,-28.309 15.275,-12.335 28.234,-27.972 38.517,-46.476 10.274,-18.497 16.969,-40.059 19.903,-64.086 l 0.342,-2.803 h -22.547 l -0.334,2.111 c -3.422,21.658 -9.764,40.57 -18.846,56.21 -9.082,15.627 -20.305,28.882 -33.355,39.398 -13.049,10.497 -27.999,18.411 -44.432,23.521 -16.529,5.128 -34.145,7.73 -52.358,7.73 -34.81,0 -64.716,-6.787 -88.884,-20.171 -24.201,-13.397 -43.826,-31.017 -58.332,-52.372 -14.569,-21.446 -25.282,-45.801 -31.846,-72.389 -6.594,-26.668 -9.938,-53.294 -9.938,-79.137 0,-26.939 3.913,-53.074 11.629,-77.678 7.7,-24.565 19.123,-46.579 33.952,-65.43 14.773,-18.78 33.521,-33.938 55.722,-45.055 22.16,-11.102 48.135,-16.731 77.201,-16.731 21.662,0 42.17,3.324 60.954,9.88 18.74,6.539 35.593,16.204 50.093,28.726 14.485,12.506 26.44,27.651 35.535,45.012 9.082,17.335 14.555,37.39 16.264,59.605 l 0.178,2.308 h 22.646 l -0.254,-2.731 c -2.343,-25.175 -8.582,-48.192 -18.543,-68.412 -9.97,-20.239 -23.211,-37.653 -39.357,-51.755 -16.141,-14.089 -35.166,-25.094 -56.549,-32.709 -21.392,-7.614 -45.265,-11.476 -70.957,-11.476"
       style="fill:#a7a5a6;fill-opacity:1;fill-rule:nonzero;stroke:none"
       transform="matrix(1.3333333,0,0,-1.3333333,3316.612,332.8348)"
       clip-path="url(#clipPath122)" />
    <path
       id="path123"
       d="m 0,0 c -5.814,-8.138 -14.809,-14.375 -27.006,-18.729 -12.197,-4.354 -26.129,-7.695 -41.812,-10.02 -15.686,-2.325 -32.672,-3.783 -50.957,-4.355 -18.295,-0.581 -36.147,-1.448 -53.567,-2.611 -17.418,-1.162 -34.402,-3.349 -50.955,-6.542 -16.553,-3.191 -31.223,-9.005 -43.99,-17.419 -12.777,-8.424 -22.945,-20.039 -30.492,-34.846 -7.547,-14.82 -11.321,-34.129 -11.321,-57.943 0,-12.789 2.178,-25.419 6.532,-37.901 4.355,-12.493 11.754,-23.528 22.207,-33.104 10.453,-9.587 23.961,-17.429 40.511,-23.528 16.553,-6.108 37.016,-9.153 61.411,-9.153 29.035,0 54.876,4.935 77.527,14.808 22.641,9.872 41.666,22.798 57.055,38.78 15.388,15.969 26.994,34.414 34.836,55.32 7.843,20.906 11.763,42.404 11.763,64.473 V 0 Z m -286.869,105.167 c 7.558,18.296 18.467,34.129 32.713,47.489 14.248,13.36 31.689,23.813 52.34,31.36 20.644,7.546 44.921,11.331 72.845,11.331 19.766,0 38.528,-2.04 56.262,-6.1 17.736,-4.068 33.295,-11.183 46.674,-21.35 13.371,-10.168 24.131,-23.379 32.269,-39.646 8.139,-16.267 12.504,-36.592 13.096,-60.986 v -284.953 c 0,-8.71 1.744,-15.104 5.232,-19.163 3.489,-4.069 8.127,-6.829 13.942,-8.276 5.803,-1.459 12.049,-2.04 18.728,-1.744 6.68,0.285 12.928,0.719 18.741,1.31 v -17.428 H 49.834 c -12.789,0 -23.992,3.044 -33.631,9.142 -9.641,6.1 -14.461,17.577 -14.461,34.425 v 58.375 H 0 c -4.65,-14.522 -12.061,-28.474 -22.229,-41.834 -10.167,-13.359 -22.947,-25.271 -38.347,-35.725 -15.399,-10.464 -32.975,-18.739 -52.731,-24.837 -19.754,-6.089 -41.252,-9.144 -64.484,-9.144 -45.32,0 -81.627,10.021 -108.939,30.06 -27.313,20.041 -40.957,50.11 -40.957,90.189 0,27.882 4.503,50.258 13.507,67.106 9.004,16.847 20.77,30.059 35.291,39.646 14.524,9.575 31.086,16.256 49.678,20.04 18.592,3.773 37.184,6.246 55.785,7.408 30.789,1.735 57.223,3.33 79.303,4.788 22.07,1.45 40.228,4.356 54.465,8.71 14.236,4.355 24.701,11.045 31.381,20.051 6.679,9.005 10.019,21.932 10.019,38.779 0,13.36 -1.162,27.301 -3.488,41.824 -2.324,14.523 -7.988,27.882 -16.994,40.08 -9.006,12.197 -22.229,22.227 -39.656,30.07 -17.43,7.842 -40.959,11.764 -70.584,11.764 -47.067,0 -83.668,-11.479 -109.819,-34.425 -26.148,-22.946 -40.67,-55.331 -43.566,-97.155 h -17.588 c 1.162,20.906 5.517,40.512 13.084,58.819"
       style="fill:#a7a5a6;fill-opacity:1;fill-rule:nonzero;stroke:none"
       transform="matrix(1.3333333,0,0,-1.3333333,3460.1197,1311.508)"
       clip-path="url(#clipPath124)" />
    <path
       id="path125"
       d="m 0,0 c -6.045,-6.842 -14.57,-12.256 -25.408,-16.124 -12.301,-4.392 -26.528,-7.803 -42.287,-10.139 -15.764,-2.337 -33.004,-3.81 -51.244,-4.381 -18.262,-0.579 -36.254,-1.456 -53.477,-2.606 -17.178,-1.146 -34.219,-3.334 -50.648,-6.502 -16.149,-3.114 -30.645,-8.851 -43.088,-17.052 -12.358,-8.145 -22.33,-19.55 -29.643,-33.895 -7.33,-14.393 -11.047,-33.506 -11.047,-56.807 0,-12.442 2.151,-24.918 6.393,-37.078 4.199,-12.046 11.445,-22.84 21.535,-32.083 10.162,-9.319 23.514,-17.066 39.687,-23.026 16.18,-5.971 36.551,-8.999 60.545,-8.999 28.555,0 54.303,4.912 76.53,14.6 22.242,9.698 41.168,22.558 56.252,38.222 15.064,15.633 26.603,33.957 34.296,54.464 7.7,20.523 11.604,41.92 11.604,63.595 z m -178.682,-253.692 c -24.588,0 -45.539,3.131 -62.275,9.308 -16.785,6.185 -30.693,14.271 -41.336,24.031 -10.705,9.807 -18.402,21.288 -22.877,34.123 -4.428,12.69 -6.672,25.719 -6.672,38.724 0,24.098 3.901,43.974 11.592,59.077 7.711,15.127 18.256,27.171 31.346,35.8 12.994,8.564 28.097,14.548 44.892,17.786 16.633,3.208 33.881,5.422 51.262,6.582 17.281,1.154 35.332,2.033 53.654,2.615 18.047,0.564 35.094,2.02 50.668,4.33 15.438,2.288 29.346,5.619 41.338,9.901 11.649,4.157 20.332,10.155 25.813,17.827 l 0.748,1.047 H 5 v -85.27 c 0,-22.277 -4.012,-44.265 -11.922,-65.351 -7.935,-21.15 -19.838,-40.05 -35.377,-56.177 -15.541,-16.14 -35.008,-29.374 -57.855,-39.336 -22.862,-9.965 -49.282,-15.017 -78.528,-15.017 m 50.459,439.079 c 29.842,0 53.936,-4.033 71.61,-11.985 17.742,-7.982 31.414,-18.367 40.642,-30.864 C -6.768,130.073 -0.896,116.222 1.48,101.368 3.816,86.788 5,72.583 5,59.149 5,41.832 1.463,28.283 -5.512,18.881 -12.488,9.473 -23.477,2.423 -38.168,-2.071 c -14.371,-4.395 -32.885,-7.361 -55.033,-8.814 -21.947,-1.449 -48.637,-3.06 -79.326,-4.79 -18.352,-1.146 -37.006,-3.624 -55.43,-7.362 -18.193,-3.703 -34.611,-10.323 -48.797,-19.677 -14.107,-9.312 -25.703,-22.346 -34.463,-38.737 -8.767,-16.404 -13.213,-38.585 -13.213,-65.928 0,-39.063 13.438,-68.729 39.936,-88.174 26.748,-19.624 62.902,-29.575 107.461,-29.575 22.855,0 44.303,3.039 63.748,9.033 19.435,5.999 36.951,14.247 52.062,24.516 15.092,10.244 27.797,22.078 37.764,35.172 9.943,13.065 17.291,26.887 21.836,41.082 l 0.557,1.737 H 5 v -60.875 c 0,-15.858 4.475,-26.729 13.297,-32.312 9.183,-5.81 20.049,-8.755 32.295,-8.755 H 74.23 v 12.176 c -5.025,-0.458 -10.437,-0.812 -16.132,-1.055 -6.869,-0.306 -13.434,0.305 -19.446,1.816 -6.285,1.566 -11.41,4.618 -15.23,9.074 -3.869,4.504 -5.834,11.499 -5.834,20.79 V 72.224 c -0.578,23.845 -4.897,44.008 -12.83,59.868 -7.924,15.836 -18.539,28.882 -31.549,38.774 -13.025,9.9 -28.408,16.933 -45.719,20.904 -17.496,4.004 -36.238,6.036 -55.703,6.036 -27.474,0 -51.695,-3.762 -71.986,-11.179 -20.229,-7.393 -37.551,-17.767 -51.488,-30.835 -13.922,-13.057 -24.727,-28.742 -32.114,-46.62 -7.097,-17.175 -11.377,-35.788 -12.732,-55.365 h 12.605 c 3.311,41.203 18.188,73.673 44.239,96.534 26.502,23.255 64.003,35.046 111.466,35.046 m -48.81,-455.515 c -45.645,0 -82.795,10.276 -110.418,30.544 -27.856,20.438 -41.979,51.461 -41.979,92.205 0,28.174 4.645,51.148 13.803,68.284 9.158,17.134 21.309,30.779 36.119,40.554 14.723,9.708 31.733,16.572 50.555,20.403 18.648,3.785 37.533,6.293 56.129,7.454 30.689,1.73 57.363,3.34 79.295,4.788 21.763,1.429 39.896,4.324 53.898,8.606 13.647,4.175 23.776,10.618 30.104,19.149 C -3.205,30.382 0,42.928 0,59.149 c 0,13.17 -1.162,27.109 -3.457,41.428 -2.248,14.057 -7.813,27.175 -16.537,38.991 -8.711,11.799 -21.721,21.649 -38.67,29.275 -17.025,7.66 -40.428,11.544 -69.559,11.544 -46.213,0 -82.605,-11.373 -108.17,-33.804 -25.511,-22.389 -39.884,-54.502 -42.72,-95.449 l -0.16,-2.327 h -22.565 l 0.147,2.638 c 1.173,21.107 5.638,41.171 13.269,59.636 7.66,18.541 18.869,34.811 33.315,48.358 14.431,13.532 32.328,24.259 53.191,31.884 20.842,7.619 45.641,11.483 73.703,11.483 19.84,0 38.957,-2.074 56.82,-6.162 18.008,-4.131 34.034,-11.465 47.629,-21.797 C -10.141,164.486 0.961,150.854 9.229,134.329 17.494,117.807 21.99,96.932 22.588,72.284 v -285.013 c 0,-8.061 1.558,-13.959 4.629,-17.533 3.176,-3.706 7.312,-6.151 12.648,-7.48 5.547,-1.394 11.608,-1.959 18.016,-1.672 6.656,0.284 12.912,0.721 18.598,1.3 l 2.751,0.279 V -260.53 H 50.592 c -13.207,0 -24.973,3.206 -34.969,9.529 C 5.258,-244.44 0,-232.147 0,-214.463 v 48.92 c -4.695,-11.681 -11.227,-23.046 -19.48,-33.893 -10.295,-13.525 -23.393,-25.731 -38.934,-36.28 -15.52,-10.547 -33.486,-19.011 -53.397,-25.157 -19.923,-6.141 -41.867,-9.255 -65.222,-9.255"
       style="fill:#a7a5a6;fill-opacity:1;fill-rule:nonzero;stroke:none"
       transform="matrix(1.3333333,0,0,-1.3333333,3459.1093,1318.1199)"
       clip-path="url(#clipPath126)" />
    <path
       id="path127"
       d="m 0,0 h 75.805 v 99.543 c 0,18.042 2.779,32.015 8.349,41.909 5.569,9.891 12.715,17.301 21.434,22.248 8.711,4.936 18.297,7.98 28.75,9.143 10.453,1.161 20.324,1.743 29.625,1.743 8.129,0 15.242,-0.444 21.34,-1.309 6.099,-0.867 11.48,-1.597 16.131,-2.168 V 153.68 c -8.139,1.121 -15.401,1.966 -21.784,2.537 -6.396,0.561 -12.791,0.846 -19.173,0.846 -27.883,0 -46.032,-5.095 -54.456,-15.273 C 97.598,131.6 93.393,115.461 93.393,93.36 V -0.012 h 96.709 V -17.461 H 93.393 V -447.682 H 75.805 V -17.461 H 0 Z"
       style="fill:#a7a5a6;fill-opacity:1;fill-rule:nonzero;stroke:none"
       transform="matrix(1.3333333,0,0,-1.3333333,3158.0208,2005.2325)"
       clip-path="url(#clipPath128)" />
    <path
       id="path129"
       d="m 0,0 h 12.588 v 430.221 h 96.709 V 442.67 H 12.588 v 95.872 c 0,22.595 4.441,39.425 13.203,50.022 9.01,10.889 27.453,16.181 56.381,16.181 6.391,0 12.914,-0.288 19.391,-0.855 5.656,-0.507 12.056,-1.234 19.066,-2.167 v 12.36 c -3.936,0.5 -8.535,1.125 -13.983,1.9 -6.005,0.852 -13.068,1.285 -20.988,1.285 -9.154,0 -19.029,-0.581 -29.347,-1.728 -10.079,-1.121 -19.43,-4.093 -27.795,-8.833 C 20.232,602.006 13.338,594.84 8.029,585.407 2.701,575.944 0,562.256 0,544.725 V 442.682 H -75.805 V 430.221 H 0 Z M 17.588,-5 H -5 v 430.221 h -75.805 v 22.461 H -5 v 97.043 c 0,18.401 2.918,32.914 8.672,43.135 5.762,10.236 13.291,18.04 22.379,23.195 8.957,5.077 18.951,8.258 29.707,9.454 10.502,1.167 20.562,1.759 29.9,1.759 8.155,0 15.453,-0.449 21.692,-1.335 6.463,-0.918 11.722,-1.625 16.084,-2.161 l 2.195,-0.27 v -22.507 l -2.842,0.39 c -8.049,1.109 -15.338,1.958 -21.664,2.524 -6.328,0.554 -12.705,0.836 -18.951,0.836 -26.965,0 -44.639,-4.834 -52.529,-14.368 -7.998,-9.675 -12.055,-25.434 -12.055,-46.835 V 447.67 h 96.709 V 425.221 H 17.588 Z"
       style="fill:#a7a5a6;fill-opacity:1;fill-rule:nonzero;stroke:none"
       transform="matrix(1.3333333,0,0,-1.3333333,3262.4271,2598.8081)"
       clip-path="url(#clipPath130)" />
    <path
       id="path131"
       d="M 0,0 108.984,-125.398 H 95.908 L -25.281,0 Z m 231.77,-301.592 c -7.547,24.692 -18.731,46.326 -33.538,64.918 -14.808,18.582 -33.24,33.252 -55.31,44 -22.068,10.74 -47.625,16.119 -76.66,16.119 -24.395,0 -47.192,-4.65 -68.385,-13.939 -21.203,-9.303 -39.783,-22.811 -55.754,-40.526 -15.971,-17.712 -28.898,-39.064 -38.769,-64.039 -9.874,-24.976 -15.686,-53.144 -17.418,-84.503 H 243.1 c 0,27.291 -3.784,53.281 -11.33,77.97 m -334.958,-179.564 c 6.678,-25.854 16.985,-48.354 30.917,-67.518 13.929,-19.174 31.917,-34.277 53.976,-45.312 22.059,-11.034 49.053,-16.551 80.975,-16.551 47.011,0 86.056,12.334 117.109,37.025 31.053,24.69 50.352,61.713 57.9,111.096 h 17.588 c -6.396,-52.277 -27.017,-92.801 -61.875,-121.549 -34.857,-28.75 -77.855,-43.125 -128.98,-43.125 -34.858,-0.57 -64.633,4.947 -89.322,16.553 -24.692,11.617 -44.879,28.029 -60.563,49.232 -15.685,21.203 -27.312,46.178 -34.859,74.926 -7.557,28.75 -11.33,59.645 -11.33,92.684 0,37.174 5.517,70.277 16.562,99.322 11.045,29.047 25.578,53.588 43.6,73.627 18.01,20.041 38.937,35.281 62.771,45.734 23.824,10.453 48.24,15.686 73.237,15.686 34.869,0 64.949,-6.68 90.23,-20.039 25.283,-13.36 45.926,-31.074 61.908,-53.145 15.981,-22.068 27.606,-47.34 34.879,-75.802 7.26,-28.465 10.315,-58.049 9.152,-88.764 h -374.751 c 0.57,-30.207 4.195,-58.229 10.876,-84.08"
       style="fill:#a7a5a6;fill-opacity:1;fill-rule:nonzero;stroke:none"
       transform="matrix(1.3333333,0,0,-1.3333333,3206.1276,2613.8653)"
       clip-path="url(#clipPath132)" />
    <path
       id="path133"
       d="M 0,0 H 6.529 L -98.107,120.398 h -18.25 z M 17.5,-5 H -2.121 l -126.022,130.398 h 32.315 l 0.746,-0.861 z m -225.881,-249.164 h 352 c -0.226,26.004 -3.994,51.137 -11.209,74.74 -7.414,24.258 -18.551,45.822 -33.101,64.09 -14.514,18.211 -32.832,32.783 -54.452,43.311 -21.63,10.529 -47.054,15.867 -75.564,15.867 -23.93,0 -46.6,-4.619 -67.381,-13.731 -20.771,-9.111 -39.242,-22.539 -54.902,-39.908 -15.701,-17.414 -28.586,-38.707 -38.299,-63.285 -9.459,-23.928 -15.205,-51.195 -17.092,-81.084 m 357.012,-5 h -362.307 l 0.147,2.637 c 1.738,31.463 7.656,60.156 17.59,85.285 9.933,25.135 23.134,46.935 39.236,64.795 16.137,17.9 35.182,31.74 56.605,41.14 21.422,9.389 44.768,14.151 69.391,14.151 29.273,0 55.434,-5.508 77.754,-16.371 22.293,-10.856 41.191,-25.893 56.172,-44.692 14.943,-18.761 26.375,-40.881 33.972,-65.744 7.59,-24.832 11.44,-51.312 11.44,-78.701 z M -32.451,-38.928 c -24.528,0 -48.83,-5.205 -72.233,-15.474 -23.406,-10.266 -44.238,-25.446 -61.916,-45.116 -17.732,-19.716 -32.24,-44.224 -43.123,-72.845 -10.881,-28.616 -16.398,-61.733 -16.398,-98.434 0,-32.682 3.783,-63.65 11.248,-92.047 7.426,-28.293 19.018,-53.215 34.451,-74.076 15.363,-20.769 35.422,-37.072 59.617,-48.457 24.233,-11.389 53.92,-16.877 88.217,-16.314 50.336,0 93.195,14.316 127.43,42.552 33.556,27.676 53.945,67.069 60.627,117.121 h -12.61 c -7.843,-48.74 -27.513,-85.929 -58.484,-110.552 -31.352,-24.928 -71.275,-37.569 -118.664,-37.569 -32.166,0 -59.787,5.657 -82.094,16.817 -22.312,11.16 -40.775,26.664 -54.881,46.076 -14.052,19.334 -24.59,42.334 -31.314,68.363 -6.697,25.918 -10.383,54.401 -10.955,84.658 l -0.049,2.547 h 374.885 c 0.9,29.475 -2.178,58.278 -9.16,85.645 -7.161,28.029 -18.762,53.248 -34.481,74.957 -15.678,21.646 -36.217,39.277 -61.051,52.398 -24.799,13.106 -54.765,19.75 -89.062,19.75 m -4.961,-467.802 c -32.986,0 -61.76,5.662 -85.522,16.828 -24.953,11.742 -45.646,28.566 -61.507,50.009 -15.813,21.375 -27.68,46.87 -35.268,75.778 -7.572,28.81 -11.412,60.207 -11.412,93.318 0,37.311 5.627,71.026 16.725,100.211 11.103,29.199 25.933,54.234 44.078,74.41 18.156,20.203 39.564,35.799 63.627,46.352 24.039,10.549 49.017,15.896 74.24,15.896 35.121,0 65.871,-6.84 91.398,-20.33 25.518,-13.482 46.635,-31.613 62.764,-53.887 16.09,-22.22 27.959,-48.009 35.277,-76.65 7.289,-28.578 10.395,-58.684 9.229,-89.476 l -0.092,-2.407 h -374.604 c 0.719,-28.916 4.331,-56.142 10.743,-80.955 6.566,-25.418 16.834,-47.849 30.517,-66.674 13.629,-18.757 31.485,-33.746 53.073,-44.545 21.607,-10.808 48.474,-16.287 79.857,-16.287 46.23,0 85.107,12.274 115.553,36.483 30.4,24.17 49.572,61.017 56.984,109.515 l 0.326,2.123 h 22.559 l -0.344,-2.804 c -6.447,-52.701 -27.564,-94.143 -62.766,-123.174 -35.154,-28.994 -79.084,-43.695 -130.57,-43.695 -1.603,-0.026 -3.242,-0.039 -4.865,-0.039"
       style="fill:#a7a5a6;fill-opacity:1;fill-rule:nonzero;stroke:none"
       transform="matrix(1.3333333,0,0,-1.3333333,3335.4193,2777.73)"
       clip-path="url(#clipPath134)" />
  </g>
</svg>
