<?xml version="1.0" encoding="UTF-8" standalone="no"?>
<svg
   xmlns:dc="http://purl.org/dc/elements/1.1/"
   xmlns:cc="http://creativecommons.org/ns#"
   xmlns:rdf="http://www.w3.org/1999/02/22-rdf-syntax-ns#"
   xmlns:svg="http://www.w3.org/2000/svg"
   xmlns="http://www.w3.org/2000/svg"
   viewBox="0 0 7559.0532 1889.76"
   height="1889.76"
   width="7559.0532"
   xml:space="preserve"
   id="svg2"
   version="1.1"><metadata
     id="metadata8"><rdf:RDF><cc:Work
         rdf:about=""><dc:format>image/svg+xml</dc:format><dc:type
           rdf:resource="http://purl.org/dc/dcmitype/StillImage" /></cc:Work></rdf:RDF></metadata><defs
     id="defs6"><clipPath
       id="clipPath18"
       clipPathUnits="userSpaceOnUse"><path
         id="path16"
         d="M 0,1417.32 H 5669.29 V 0 H 0 Z" /></clipPath></defs><g
     transform="matrix(1.3333333,0,0,-1.3333333,0,1889.76)"
     id="g10"><g
       id="g12"><g
         clip-path="url(#clipPath18)"
         id="g14"><g
           transform="translate(2719.6343,235.5137)"
           id="g20"><path
             id="path22"
             style="fill:#231f20;fill-opacity:1;fill-rule:nonzero;stroke:none"
             d="m 0,0 c -114.096,114.054 -171.123,251.668 -171.123,412.803 0,160.17 57.027,297.529 171.123,412.093 114.052,113.584 251.667,170.397 412.8,170.397 160.173,0 297.532,-56.813 412.097,-170.397 C 938.48,710.332 995.293,572.973 995.293,412.803 995.293,251.668 938.48,114.054 824.897,0 710.332,-114.095 572.973,-171.12 412.8,-171.12 251.667,-171.12 114.052,-114.095 0,0" /></g><path
           id="path24"
           style="fill:#f68712;fill-opacity:1;fill-rule:nonzero;stroke:none"
           d="M 2848.616,526.394 H 2738.78 v 109.839 h 109.836 z" /><path
           id="path26"
           style="fill:#40c1f3;fill-opacity:1;fill-rule:nonzero;stroke:none"
           d="m 2984.417,526.394 h -109.839 v 109.839 h 109.839 z" /><path
           id="path28"
           style="fill:#5e2590;fill-opacity:1;fill-rule:nonzero;stroke:none"
           d="m 2712.816,526.394 h -109.839 v 109.839 h 109.839 z" /><path
           id="path30"
           style="fill:#fff200;fill-opacity:1;fill-rule:nonzero;stroke:none"
           d="M 3120.218,526.394 H 3010.38 v 109.839 h 109.838 z" /><path
           id="path32"
           style="fill:#80cc28;fill-opacity:1;fill-rule:nonzero;stroke:none"
           d="m 3256.021,526.394 h -109.84 v 109.839 h 109.84 z" /><path
           id="path34"
           style="fill:#fff200;fill-opacity:1;fill-rule:nonzero;stroke:none"
           d="m 3391.821,526.394 h -109.84 v 109.839 h 109.84 z" /><path
           id="path36"
           style="fill:#80cc28;fill-opacity:1;fill-rule:nonzero;stroke:none"
           d="m 3527.622,526.394 h -109.838 v 109.839 h 109.838 z" /><path
           id="path38"
           style="fill:#f68712;fill-opacity:1;fill-rule:nonzero;stroke:none"
           d="m 3663.423,526.394 h -109.838 v 109.839 h 109.838 z" /><path
           id="path40"
           style="fill:#3871c1;fill-opacity:1;fill-rule:nonzero;stroke:none"
           d="m 3417.782,500.393 h 109.84 V 390.554 h -109.84 z" /><path
           id="path42"
           style="fill:#f68712;fill-opacity:1;fill-rule:nonzero;stroke:none"
           d="m 3281.981,500.393 h 109.84 V 390.554 h -109.84 z" /><path
           id="path44"
           style="fill:#80cc28;fill-opacity:1;fill-rule:nonzero;stroke:none"
           d="m 3553.583,500.393 h 109.84 V 390.554 h -109.84 z" /><path
           id="path46"
           style="fill:#40c1f3;fill-opacity:1;fill-rule:nonzero;stroke:none"
           d="m 3146.181,500.393 h 109.838 V 390.554 h -109.838 z" /><path
           id="path48"
           style="fill:#5e2590;fill-opacity:1;fill-rule:nonzero;stroke:none"
           d="m 3010.378,500.393 h 109.84 V 390.554 h -109.84 z" /><path
           id="path50"
           style="fill:#ec008c;fill-opacity:1;fill-rule:nonzero;stroke:none"
           d="m 2874.577,500.393 h 109.84 V 390.554 h -109.84 z" /><path
           id="path52"
           style="fill:#3871c1;fill-opacity:1;fill-rule:nonzero;stroke:none"
           d="m 2738.779,500.393 h 109.835 V 390.554 h -109.835 z" /><path
           id="path54"
           style="fill:#ec008c;fill-opacity:1;fill-rule:nonzero;stroke:none"
           d="m 2602.979,500.393 h 109.838 V 390.554 h -109.838 z" /><path
           id="path56"
           style="fill:#fff200;fill-opacity:1;fill-rule:nonzero;stroke:none"
           d="M 2848.616,254.713 H 2738.78 v 109.839 h 109.836 z" /><path
           id="path58"
           style="fill:#80cc28;fill-opacity:1;fill-rule:nonzero;stroke:none"
           d="m 2984.417,254.713 h -109.839 v 109.839 h 109.839 z" /><path
           id="path60"
           style="fill:#fff200;fill-opacity:1;fill-rule:nonzero;stroke:none"
           d="M 3120.218,254.713 H 3010.38 v 109.839 h 109.838 z" /><path
           id="path62"
           style="fill:#3871c1;fill-opacity:1;fill-rule:nonzero;stroke:none"
           d="m 3256.021,254.713 h -109.84 v 109.839 h 109.84 z" /><path
           id="path64"
           style="fill:#fff200;fill-opacity:1;fill-rule:nonzero;stroke:none"
           d="m 3391.821,254.713 h -109.84 v 109.839 h 109.84 z" /><path
           id="path66"
           style="fill:#5e2590;fill-opacity:1;fill-rule:nonzero;stroke:none"
           d="m 3527.622,254.713 h -109.838 v 109.839 h 109.838 z" /><path
           id="path68"
           style="fill:#f68712;fill-opacity:1;fill-rule:nonzero;stroke:none"
           d="m 3281.981,228.712 h 109.84 V 118.873 h -109.84 z" /><path
           id="path70"
           style="fill:#ec008c;fill-opacity:1;fill-rule:nonzero;stroke:none"
           d="m 3146.181,228.712 h 109.838 V 118.873 h -109.838 z" /><path
           id="path72"
           style="fill:#40c1f3;fill-opacity:1;fill-rule:nonzero;stroke:none"
           d="m 3010.378,228.712 h 109.84 V 118.873 h -109.84 z" /><path
           id="path74"
           style="fill:#fff200;fill-opacity:1;fill-rule:nonzero;stroke:none"
           d="m 2874.577,228.712 h 109.84 V 118.873 h -109.84 z" /><path
           id="path76"
           style="fill:#40c1f3;fill-opacity:1;fill-rule:nonzero;stroke:none"
           d="m 2984.417,1069.756 h -109.839 v 109.839 h 109.839 z" /><path
           id="path78"
           style="fill:#fff200;fill-opacity:1;fill-rule:nonzero;stroke:none"
           d="M 3120.218,1069.756 H 3010.38 v 109.839 h 109.838 z" /><path
           id="path80"
           style="fill:#ec008c;fill-opacity:1;fill-rule:nonzero;stroke:none"
           d="m 3256.021,1069.756 h -109.84 v 109.839 h 109.84 z" /><path
           id="path82"
           style="fill:#fff200;fill-opacity:1;fill-rule:nonzero;stroke:none"
           d="m 3391.821,1069.756 h -109.84 v 109.839 h 109.84 z" /><path
           id="path84"
           style="fill:#3871c1;fill-opacity:1;fill-rule:nonzero;stroke:none"
           d="m 3417.782,1043.755 h 109.84 V 933.916 h -109.84 z" /><path
           id="path86"
           style="fill:#f68712;fill-opacity:1;fill-rule:nonzero;stroke:none"
           d="m 3281.981,1043.755 h 109.84 V 933.916 h -109.84 z" /><path
           id="path88"
           style="fill:#40c1f3;fill-opacity:1;fill-rule:nonzero;stroke:none"
           d="m 3146.181,1043.755 h 109.838 V 933.916 h -109.838 z" /><path
           id="path90"
           style="fill:#5e2590;fill-opacity:1;fill-rule:nonzero;stroke:none"
           d="m 3010.378,1043.755 h 109.84 V 933.916 h -109.84 z" /><path
           id="path92"
           style="fill:#ec008c;fill-opacity:1;fill-rule:nonzero;stroke:none"
           d="m 2874.577,1043.755 h 109.84 V 933.916 h -109.84 z" /><path
           id="path94"
           style="fill:#3871c1;fill-opacity:1;fill-rule:nonzero;stroke:none"
           d="m 2738.779,1043.755 h 109.835 V 933.916 h -109.835 z" /><path
           id="path96"
           style="fill:#fff200;fill-opacity:1;fill-rule:nonzero;stroke:none"
           d="M 2848.616,798.075 H 2738.78 v 109.839 h 109.836 z" /><path
           id="path98"
           style="fill:#80cc28;fill-opacity:1;fill-rule:nonzero;stroke:none"
           d="m 2984.417,798.075 h -109.839 v 109.839 h 109.839 z" /><path
           id="path100"
           style="fill:#5e2590;fill-opacity:1;fill-rule:nonzero;stroke:none"
           d="m 2712.816,798.075 h -109.839 v 109.839 h 109.839 z" /><path
           id="path102"
           style="fill:#fff200;fill-opacity:1;fill-rule:nonzero;stroke:none"
           d="M 3120.218,798.075 H 3010.38 v 109.839 h 109.838 z" /><path
           id="path104"
           style="fill:#3871c1;fill-opacity:1;fill-rule:nonzero;stroke:none"
           d="m 3256.021,798.075 h -109.84 v 109.839 h 109.84 z" /><path
           id="path106"
           style="fill:#fff200;fill-opacity:1;fill-rule:nonzero;stroke:none"
           d="m 3391.821,798.075 h -109.84 v 109.839 h 109.84 z" /><path
           id="path108"
           style="fill:#5e2590;fill-opacity:1;fill-rule:nonzero;stroke:none"
           d="m 3527.622,798.075 h -109.838 v 109.839 h 109.838 z" /><path
           id="path110"
           style="fill:#ec008c;fill-opacity:1;fill-rule:nonzero;stroke:none"
           d="m 3663.423,798.075 h -109.838 v 109.839 h 109.838 z" /><path
           id="path112"
           style="fill:#3871c1;fill-opacity:1;fill-rule:nonzero;stroke:none"
           d="m 3417.782,772.074 h 109.84 v -109.84 h -109.84 z" /><path
           id="path114"
           style="fill:#f68712;fill-opacity:1;fill-rule:nonzero;stroke:none"
           d="m 3281.981,772.074 h 109.84 v -109.84 h -109.84 z" /><path
           id="path116"
           style="fill:#80cc28;fill-opacity:1;fill-rule:nonzero;stroke:none"
           d="m 3553.583,772.074 h 109.84 v -109.84 h -109.84 z" /><path
           id="path118"
           style="fill:#ec008c;fill-opacity:1;fill-rule:nonzero;stroke:none"
           d="m 3146.181,772.074 h 109.838 v -109.84 h -109.838 z" /><path
           id="path120"
           style="fill:#40c1f3;fill-opacity:1;fill-rule:nonzero;stroke:none"
           d="m 3010.378,772.074 h 109.84 v -109.84 h -109.84 z" /><path
           id="path122"
           style="fill:#fff200;fill-opacity:1;fill-rule:nonzero;stroke:none"
           d="m 2874.577,772.074 h 109.84 v -109.84 h -109.84 z" /><path
           id="path124"
           style="fill:#5e2590;fill-opacity:1;fill-rule:nonzero;stroke:none"
           d="m 2738.779,772.074 h 109.835 v -109.84 h -109.835 z" /><path
           id="path126"
           style="fill:#f68712;fill-opacity:1;fill-rule:nonzero;stroke:none"
           d="m 2602.979,772.074 h 109.838 v -109.84 h -109.838 z" /><path
           id="path128"
           style="fill:#231f20;fill-opacity:1;fill-rule:nonzero;stroke:none"
           d="m 289.466,52.392 h -162.68 v 1193.419 h 162.68 z" /><g
           transform="translate(1012.5615,52.3916)"
           id="g130"><path
             id="path132"
             style="fill:#231f20;fill-opacity:1;fill-rule:nonzero;stroke:none"
             d="m 0,0 h -781.28 l 515.751,1032.201 h -519.398 v 161.218 H -4.389 L -520.119,161.218 H 0 Z" /></g><g
           transform="translate(1586.3086,365.3271)"
           id="g134"><path
             id="path136"
             style="fill:#231f20;fill-opacity:1;fill-rule:nonzero;stroke:none"
             d="M 0,0 -175.804,438.407 -350.145,0 Z m 66.382,-164.863 h -482.909 l -59.089,-148.073 h -177.988 l 477.8,1195.603 478.542,-1195.603 H 125.472 Z" /></g><g
           transform="translate(2127.293,487.1523)"
           id="g138"><path
             id="path140"
             style="fill:#231f20;fill-opacity:1;fill-rule:nonzero;stroke:none"
             d="m 0,0 c 81.209,0 150.758,28.933 208.646,86.799 57.866,57.386 86.799,126.934 86.799,208.646 0,81.689 -28.933,151.238 -86.799,208.624 C 150.758,561.935 81.209,590.868 0,590.868 H -126.912 V 0 Z m 261.162,-434.761 -211.55,266.25 h -176.524 v -266.25 H -295.423 V 758.658 H 0 c 127.896,0 237.077,-45.245 327.544,-135.691 C 417.99,532.521 463.214,423.34 463.214,295.445 463.214,167.048 417.99,57.626 327.544,-32.82 295.926,-63.959 260.9,-90.446 222.49,-112.326 l 253.126,-322.435 z" /></g><g
           transform="translate(2819.9727,960.585)"
           id="g142"><path
             id="path144"
             style="fill:#231f20;fill-opacity:1;fill-rule:nonzero;stroke:none"
             d="m 0,0 c -85.598,-86.079 -128.397,-189.67 -128.397,-310.752 0,-121.585 42.799,-225.416 128.397,-311.495 86.079,-85.599 189.889,-128.376 311.473,-128.376 121.083,0 224.673,42.777 310.753,128.376 86.078,86.079 129.118,189.91 129.118,311.495 C 751.344,-189.67 708.304,-86.079 622.226,0 536.146,86.078 432.556,129.118 311.473,129.118 189.889,129.118 86.079,86.078 0,0 m -110.884,-733.11 c -116.737,116.693 -175.084,257.494 -175.084,422.358 0,163.881 58.347,304.419 175.084,421.636 116.693,116.213 257.493,174.342 422.357,174.342 163.881,0 304.42,-58.129 421.637,-174.342 116.212,-117.217 174.341,-257.755 174.341,-421.636 0,-164.864 -58.129,-305.665 -174.341,-422.358 -117.217,-116.737 -257.756,-175.083 -421.637,-175.083 -164.864,0 -305.664,58.346 -422.357,175.083" /></g><g
           transform="translate(296.8037,1364.9292)"
           id="g146"><path
             id="path148"
             style="fill:#231f20;fill-opacity:1;fill-rule:nonzero;stroke:none"
             d="m 0,0 c 1.721,0 2.754,-1.808 1.721,-4.821 l -37.191,-97.611 c -0.688,-3.013 -2.41,-5.423 -6.198,-5.423 h -117.773 c -3.787,0 -3.787,3.917 -2.755,5.121 l 91.257,99.721 C -69.562,-1.506 -67.496,0 -65.43,0 Z" /></g><g
           transform="translate(4315.9854,381.5186)"
           id="g150"><path
             id="path152"
             style="fill:#a7a5a6;fill-opacity:1;fill-rule:nonzero;stroke:none"
             d="m 0,0 c -14.594,-29.625 -33.703,-54.75 -57.297,-75.359 -23.609,-20.61 -51.078,-36.5 -82.406,-47.657 -31.344,-11.156 -65.891,-16.75 -103.656,-16.75 -47.219,0 -89.078,8.813 -125.563,26.407 -36.484,17.593 -67.172,41.421 -92.062,71.484 -24.907,30.062 -43.782,65.062 -56.657,104.999 -12.875,39.938 -19.312,82.656 -19.312,128.172 0,48.094 6.219,93.812 18.672,137.188 12.453,43.375 31.344,81.594 56.672,114.656 25.328,33.063 57.531,59.469 96.609,79.219 39.063,19.75 84.797,29.625 137.172,29.625 30.906,0 60.531,-4.734 88.874,-14.172 28.329,-9.437 53.657,-23.187 75.985,-41.219 22.328,-18.031 41,-40.578 56.032,-67.625 15.031,-27.062 24.686,-58.187 28.983,-93.39 h -26 c -5.155,32.625 -14.593,60.75 -28.312,84.375 -13.734,23.625 -30.468,43.375 -50.188,59.265 -19.734,15.875 -42.03,27.688 -66.905,35.422 -24.875,7.719 -51.047,11.594 -78.5,11.594 -52.344,0 -96.735,-10.094 -133.188,-30.281 -36.469,-20.188 -65.625,-46.375 -87.5,-78.578 -21.875,-32.204 -37.75,-68.266 -47.609,-108.204 -9.875,-39.938 -14.797,-79.234 -14.797,-117.875 0,-40.375 5.781,-79.016 17.359,-115.938 11.578,-36.937 28.516,-69.561 50.813,-97.905 22.297,-28.344 50.172,-50.875 83.625,-67.625 33.437,-16.75 72.031,-25.125 115.781,-25.125 32.594,0 63.031,4.938 91.328,14.813 28.296,9.875 53.375,24.265 75.25,43.156 21.875,18.89 39.672,41.437 53.391,67.625 13.718,26.186 21.875,56.046 24.452,89.546 h 26 C 23.609,62.905 14.594,29.624 0,0" /></g><g
           transform="translate(4796.2959,644.7207)"
           id="g154"><path
             id="path156"
             style="fill:#a7a5a6;fill-opacity:1;fill-rule:nonzero;stroke:none"
             d="m 0,0 c -8.595,-12.031 -21.891,-21.25 -39.922,-27.687 -18.031,-6.438 -38.625,-11.376 -61.812,-14.813 -23.188,-3.438 -48.297,-5.594 -75.328,-6.438 -27.047,-0.859 -53.438,-2.14 -79.188,-3.859 -25.75,-1.719 -50.859,-4.953 -75.329,-9.672 -24.468,-4.719 -46.155,-13.312 -65.03,-25.75 -18.891,-12.453 -33.922,-29.625 -45.078,-51.515 -11.158,-21.907 -16.735,-50.453 -16.735,-85.657 0,-18.905 3.219,-37.577 9.656,-56.03 6.438,-18.469 17.375,-34.781 32.829,-48.937 15.453,-14.172 35.421,-25.766 59.89,-34.782 24.468,-9.031 54.719,-13.531 90.781,-13.531 42.921,0 81.125,7.297 114.61,21.891 33.468,14.593 61.593,33.703 84.343,57.328 22.75,23.609 39.907,50.875 51.5,81.78 11.594,30.906 17.391,62.688 17.391,95.313 L 2.578,0 Z m -424.079,155.469 c 11.173,27.047 27.297,50.453 48.36,70.203 21.063,19.75 46.844,35.203 77.374,46.36 30.517,11.156 66.408,16.75 107.689,16.75 29.219,0 56.953,-3.016 83.172,-9.016 26.218,-6.016 49.218,-16.531 69,-31.562 19.765,-15.032 35.671,-34.563 47.702,-58.61 C 21.25,165.547 27.703,135.5 28.578,99.438 v -421.25 c 0,-12.875 2.577,-22.328 7.735,-28.328 5.156,-6.015 12.015,-10.093 20.608,-12.234 8.579,-2.156 17.813,-3.016 27.688,-2.578 9.875,0.422 19.109,1.062 27.704,1.937 V -388.78 H 73.672 c -18.906,0 -35.469,4.5 -49.719,13.515 -14.25,9.016 -21.375,25.985 -21.375,50.891 v 86.297 H 0 c -6.875,-21.469 -17.828,-42.094 -32.859,-61.844 -15.032,-19.75 -33.923,-37.359 -56.688,-52.812 -22.766,-15.469 -48.75,-27.704 -77.953,-36.719 -29.203,-9 -60.984,-13.516 -95.328,-13.516 -67,0 -120.672,14.813 -161.047,44.438 -40.375,29.625 -60.547,74.078 -60.547,133.327 0,41.219 6.656,74.297 19.969,99.203 13.312,24.906 30.703,44.437 52.171,58.609 21.469,14.157 45.954,24.032 73.437,29.625 27.486,5.578 54.97,9.235 82.47,10.954 45.516,2.562 84.593,4.921 117.234,7.078 32.625,2.14 59.469,6.437 80.516,12.875 21.046,6.437 36.516,16.328 46.391,29.64 9.874,13.313 14.812,32.422 14.812,57.329 0,19.75 -1.719,40.359 -5.157,61.828 -3.437,21.469 -11.812,41.219 -25.124,59.25 -13.313,18.031 -32.86,32.859 -58.625,44.453 -25.767,11.594 -60.547,17.391 -104.344,17.391 -69.578,0 -123.687,-16.969 -162.344,-50.891 -38.656,-33.922 -60.125,-81.797 -64.406,-143.624 h -26 c 1.719,30.905 8.156,59.89 19.343,86.952" /></g><g
           transform="translate(4796.1699,917.5649)"
           id="g158"><path
             id="path160"
             style="fill:#a7a5a6;fill-opacity:1;fill-rule:nonzero;stroke:none"
             d="m 0,0 h 112.063 v 147.156 c 0,26.672 4.109,47.328 12.343,61.953 8.235,14.625 18.797,25.578 31.688,32.891 12.875,7.297 27.047,11.797 42.5,13.516 15.453,1.718 30.047,2.578 43.797,2.578 12.015,0 22.531,-0.657 31.546,-1.938 9.016,-1.281 16.969,-2.359 23.844,-3.203 v -25.766 c -12.031,1.657 -22.765,2.907 -32.203,3.75 -9.453,0.829 -18.906,1.25 -28.344,1.25 -41.218,0 -68.047,-7.531 -80.5,-22.578 -12.453,-15.062 -18.672,-38.922 -18.672,-71.593 V -0.016 H 281.031 V -25.812 H 138.062 v -636 h -25.999 v 636 L 0,-25.812 Z" /></g><g
           transform="translate(5156.7734,1168.7524)"
           id="g162"><path
             id="path164"
             style="fill:#a7a5a6;fill-opacity:1;fill-rule:nonzero;stroke:none"
             d="M 0,0 161.109,-185.375 H 141.781 L -37.375,0 Z m 342.625,-445.844 c -11.156,36.5 -27.688,68.485 -49.578,95.969 -21.891,27.469 -49.141,49.156 -81.766,65.047 -32.625,15.875 -70.406,23.828 -113.328,23.828 -36.062,0 -69.766,-6.875 -101.094,-20.609 -31.343,-13.75 -58.812,-33.719 -82.422,-59.907 -23.609,-26.187 -42.718,-57.75 -57.312,-94.671 -14.594,-36.923 -23.187,-78.563 -25.75,-124.923 h 528 c 0,40.344 -5.594,78.766 -16.75,115.266 m -495.172,-265.453 c 9.875,-38.219 25.109,-71.484 45.703,-99.812 20.594,-28.344 47.188,-50.672 79.797,-66.984 32.609,-16.313 72.516,-24.469 119.703,-24.469 69.5,0 127.219,18.234 173.125,54.734 45.906,36.5 74.438,91.234 85.594,164.234 h 26 c -9.453,-77.281 -39.938,-137.187 -91.469,-179.687 -51.531,-42.5 -115.094,-63.75 -190.672,-63.75 -51.531,-0.844 -95.546,7.313 -132.047,24.469 -36.5,17.172 -66.343,41.437 -89.531,72.781 -23.187,31.344 -40.375,68.266 -51.531,110.765 -11.172,42.5 -16.75,88.172 -16.75,137.016 0,54.953 8.156,103.89 24.484,146.828 16.329,42.938 37.813,79.219 64.453,108.844 26.625,29.625 57.563,52.156 92.797,67.609 35.219,15.453 71.313,23.188 108.266,23.188 51.547,0 96.016,-9.875 133.391,-29.625 37.375,-19.75 67.89,-45.938 91.515,-78.563 23.625,-32.625 40.813,-69.984 51.563,-112.062 10.734,-42.079 15.25,-85.813 13.531,-131.219 h -554 c 0.844,-44.657 6.203,-86.079 16.078,-124.297" /></g></g></g></g></svg>